:SAMPLES-PER-SECOND 30
:FULLY-SPECIFIED
:DEGREES
221
root  6.80201 38.9887 8.05013 53.4099 -85.7493 -53.2031
RightUpLeg  -7.08696 -5.28082 -20.6612
RightLeg  29.9406 8.94234 5.43701
RightFoot  -5.83639 -1.58239 31.1893
RightToes  -5.28226e-011 1.30204e-014 -6.03759e-014
Spine  11.9514 5.0557 8.25312
Spine1  -5.27489 6.65353 -9.62137
HEad  -45.0663 66.9291 -45.2987
LeftShoulder1  1.29741 -4.3659 -9.03511
LeftArm  1.62823 27.0254 -18.0628
LeftForeArm  40.1311 4.94953 -13.8115
LeftHand  0.00090637 5.613 10.7535
RightShoulder  0.403424 -0.566897 6.01404
RightArm  7.59912 22.4033 41.8268
RightForeArm  161.476 70.29 151.664
RightHand  -0.599202 -0.188667 -13.413
LeftUpLeg  -6.19007 3.91876 17.4591
LeftLeg  16.8601 -4.69618 1.16537
LeftFoot  -8.15635 0.543121 -17.7388
LeftToes  -2.42178e-010 -1.66495e-011 -2.88221e-011
222
root  6.84377 38.8652 7.09981 67.6147 -87.5815 -66.6086
RightUpLeg  -8.12485 -8.9639 -17.0821
RightLeg  19.7415 9.00977 3.45754
RightFoot  -3.01446 -2.3297 31.1734
RightToes  -5.28226e-011 1.30204e-014 -6.03759e-014
Spine  10.8549 4.60702 6.28219
Spine1  -4.4206 6.12967 -8.99982
HEad  -38.2341 63.7706 -40.2501
LeftShoulder1  1.78808 -5.45526 -12.9382
LeftArm  0.534465 22.8563 -25.3339
LeftForeArm  36.6506 1.22496 -14.187
LeftHand  -0.131675 4.2253 11.9991
RightShoulder  0.629251 0.377568 8.82792
RightArm  15.7522 16.4391 48.9865
RightForeArm  121.412 79.7142 106.633
RightHand  -0.636812 0.304277 -13.0491
LeftUpLeg  -5.09671 9.38103 18.037
LeftLeg  14.0685 -8.91412 0.901339
LeftFoot  -7.12953 0.772467 -19.6288
LeftToes  -2.42178e-010 -1.66495e-011 -2.88221e-011
223
root  6.89087 38.75 6.12061 -103.356 -89.7153 105.097
RightUpLeg  -10.8271 -6.24374 -15.6434
RightLeg  19.6136 0.468873 -0.168789
RightFoot  -2.82655 -1.83552 23.7961
RightToes  -5.28226e-011 1.30204e-014 -6.03759e-014
Spine  10.1804 2.96682 2.59279
Spine1  -4.60029 4.12653 -7.32844
HEad  -24.318 49.7249 -25.9922
LeftShoulder1  2.11778 -5.83452 -15.9547
LeftArm  11.0447 17.7488 -33.6946
LeftForeArm  24.5149 -9.34265 -12.0619
LeftHand  -0.404922 1.70355 12.6291
RightShoulder  0.880569 1.01773 12.5027
RightArm  21.7164 9.82688 56.4245
RightForeArm  43.069 69.5755 27.2997
RightHand  -0.822384 0.84783 -15.2792
LeftUpLeg  -2.96394 14.0339 17.9963
LeftLeg  8.18682 -12.3177 0.0653615
LeftFoot  -4.45993 1.51063 -24.0727
LeftToes  -2.42178e-010 -1.66495e-011 -2.88221e-011
224
root  7.01592 38.5386 5.28843 -51.4685 -86.2485 53.7114
RightUpLeg  -13.5397 -3.30586 -16.6907
RightLeg  25.1213 -6.70996 -3.58917
RightFoot  -5.05248 -0.975604 17.1018
RightToes  -5.28226e-011 1.30204e-014 -6.03759e-014
Spine  10.6648 -0.110502 -1.4245
Spine1  -5.86492 0.611455 -5.94407
HEad  -16.0846 23.3183 -12.7464
LeftShoulder1  2.04398 -5.00093 -17.3903
LeftArm  29.5478 11.7407 -43.0808
LeftForeArm  8.20088 -26.9377 -4.55897
LeftHand  -0.719423 -0.86413 13.4707
RightShoulder  1.12266 1.38823 16.3117
RightArm  27.1459 2.55721 62.297
RightForeArm  15.5728 45.4372 9.17045
RightHand  -1.14428 1.29691 -19.8861
LeftUpLeg  -3.70556 13.8716 17.647
LeftLeg  8.12227 -10.8912 -1.27921
LeftFoot  -1.34288 2.69269 -30.1297
LeftToes  -2.42178e-010 -1.66495e-011 -2.88221e-011
225
root  7.22013 38.378 4.73498 -52.5373 -84.4614 54.6228
RightUpLeg  -14.6564 -4.22411 -17.4565
RightLeg  28.5144 -6.67651 -4.13008
RightFoot  -7.03611 -0.612501 15.0533
RightToes  -5.28226e-011 1.30204e-014 -6.03759e-014
Spine  12.3822 -2.86919 -3.46617
Spine1  -7.25405 -2.32629 -6.25854
HEad  -15.5987 -9.97357 -1.40082
LeftShoulder1  1.80905 -4.05556 -17.2691
LeftArm  21.4111 3.05687 -53.2454
LeftForeArm  24.4936 -43.0349 -8.85927
LeftHand  -0.932202 -2.69637 13.5982
RightShoulder  1.3566 1.87426 18.7979
RightArm  24.2088 -5.17911 63.0668
RightForeArm  0.979542 21.0495 7.64525
RightHand  -1.15588 0.550877 -22.5384
LeftUpLeg  -8.862 9.39151 18.3774
LeftLeg  22.555 -5.32157 -1.92545
LeftFoot  -0.430601 3.28455 -33.541
LeftToes  -2.42178e-010 -1.66495e-011 -2.88221e-011
226
root  7.40155 38.2492 4.59405 -79.4714 -85.6632 80.6668
RightUpLeg  -15.4583 -4.96277 -16.4443
RightLeg  29.3603 -3.67149 -2.46618
RightFoot  -7.95138 -0.493823 14.7741
RightToes  -5.28226e-011 1.30204e-014 -6.03759e-014
Spine  14.7051 -3.60794 -3.04994
Spine1  -8.53364 -3.0107 -6.30227
HEad  -22.9541 -43.2684 12.4087
LeftShoulder1  1.68296 -4.11432 -15.315
LeftArm  24.3493 -7.33842 -67.5326
LeftForeArm  34.7083 -59.1834 -15.8491
LeftHand  -0.957252 -4.04751 12.0269
RightShoulder  1.51996 2.5412 18.7181
RightArm  -7.801 -12.6178 56.5553
RightForeArm  23.3675 -2.17118 16.0207
RightHand  -0.465811 -2.86493 -20.2538
LeftUpLeg  -13.5206 4.71139 21.4822
LeftLeg  47.1886 -0.800621 -0.646461
LeftFoot  -1.7117 2.81607 -32.3639
LeftToes  -2.42178e-010 -1.66495e-011 -2.88221e-011
227
root  7.49377 38.0382 4.67441 -145.825 -84.8097 146.119
RightUpLeg  -17.2415 -2.51464 -15.1518
RightLeg  30.594 -2.07574 -1.57027
RightFoot  -8.31647 -0.417765 13.6141
RightToes  -5.28226e-011 1.30204e-014 -6.03759e-014
Spine  16.4831 -3.0303 -4.0257
Spine1  -9.67701 -2.70813 -3.65506
HEad  -38.1855 -64.6749 31.7252
LeftShoulder1  1.44094 -4.4854 -10.7976
LeftArm  31.0697 -18.4085 -83.5963
LeftForeArm  48.9217 -72.488 -31.7458
LeftHand  -0.795756 -4.56564 9.52585
RightShoulder  1.59949 3.24968 17.0946
RightArm  -11.9519 -19.4191 45.7597
RightForeArm  37.3726 -8.12274 14.3658
RightHand  0.130505 -6.37656 -16.1619
LeftUpLeg  -14.8876 2.39959 24.6522
LeftLeg  75.0105 -0.355345 -0.832336
LeftFoot  -4.79494 1.65795 -27.9363
LeftToes  -2.42178e-010 -1.66495e-011 -2.88221e-011
228
root  7.4557 37.9418 4.65788 -160.869 -80.3912 160.687
RightUpLeg  -18.7067 1.37061 -15.2076
RightLeg  31.722 -2.28868 -1.76721
RightFoot  -8.47057 -0.360985 12.0689
RightToes  -5.28226e-011 1.30204e-014 -6.03759e-014
Spine  16.613 -3.0723 -8.88006
Spine1  -10.0126 -3.83383 0.958022
HEad  -47.8703 -67.9458 43.5252
LeftShoulder1  0.927143 -3.89414 -4.54139
LeftArm  38.4884 -29.2267 -96.2634
LeftForeArm  92.2073 -80.3484 -78.5154
LeftHand  -0.608629 -3.6846 8.06273
RightShoulder  1.65837 3.79666 16.0341
RightArm  3.11855 -23.0576 31.5225
RightForeArm  42.1351 -4.93317 16.1432
RightHand  0.187938 -6.96237 -15.3195
LeftUpLeg  -14.482 -1.13773 25.7272
LeftLeg  102.076 0.537179 -3.01221
LeftFoot  -7.29624 0.856422 -23.0272
LeftToes  -2.42178e-010 -1.66495e-011 -2.88221e-011
